<?xml version="1.0" standalone="no"?>
<!DOCTYPE svg PUBLIC "-//W3C//DTD SVG 20010904//EN"
 "http://www.w3.org/TR/2001/REC-SVG-20010904/DTD/svg10.dtd">
<svg version="1.0" xmlns="http://www.w3.org/2000/svg"
 width="512.000000pt" height="512.000000pt" viewBox="0 0 512.000000 512.000000"
 preserveAspectRatio="xMidYMid meet">
<metadata>
Created by potrace 1.14, written by Peter Selinger 2001-2017
</metadata>
<g transform="translate(0.000000,512.000000) scale(0.100000,-0.100000)"
fill="#000000" stroke="none">
<path d="M1266 4626 c-30 -50 -62 -107 -73 -126 -11 -19 -132 -228 -268 -465
-136 -236 -257 -446 -268 -465 -61 -107 -562 -978 -570 -991 -8 -13 0 -36 37
-100 27 -46 60 -104 74 -129 14 -25 93 -162 175 -305 82 -143 218 -379 302
-525 84 -146 237 -411 340 -590 104 -179 195 -338 203 -355 9 -16 31 -53 49
-82 18 -29 33 -57 33 -62 0 -6 8 -14 18 -19 10 -6 538 -9 1256 -8 l1239 1 17
32 c10 18 22 38 27 45 6 7 24 38 40 68 27 49 122 214 468 815 54 94 107 186
118 205 51 90 451 786 501 873 31 53 59 103 62 111 3 7 -36 85 -87 172 -50 88
-101 175 -112 194 -31 56 -261 455 -587 1020 -167 289 -311 539 -320 555 -10
17 -42 73 -73 125 l-55 95 -1246 1 -1247 1 -53 -91z m2409 -186 c6 -11 47 -84
93 -161 45 -78 82 -145 82 -150 0 -5 5 -9 10 -9 6 0 10 -4 10 -9 0 -5 97 -177
216 -383 380 -655 586 -1011 630 -1087 l43 -75 -27 -50 c-16 -28 -87 -152
-158 -276 -72 -124 -224 -387 -339 -585 -114 -198 -218 -378 -230 -400 -13
-22 -47 -80 -75 -130 -29 -49 -70 -120 -91 -157 -21 -37 -47 -82 -58 -100 -10
-18 -40 -70 -66 -115 -26 -46 -50 -83 -54 -84 -29 -5 -2166 -2 -2180 3 -14 5
-102 144 -141 223 -3 5 -12 21 -21 35 -9 14 -95 162 -192 330 -96 168 -202
351 -236 408 -34 57 -61 105 -61 107 0 1 -24 42 -53 91 -29 49 -67 114 -84
144 -16 30 -76 133 -132 229 -55 96 -101 176 -101 179 0 3 -6 13 -14 21 -7 9
-25 39 -40 67 l-27 50 112 195 c61 107 120 208 129 224 96 166 139 241 175
300 23 39 45 77 48 85 4 8 17 31 28 50 26 42 193 329 224 385 13 22 102 177
199 344 97 167 176 308 176 312 0 5 494 8 1098 8 1079 0 1098 0 1107 -19z"/>
<path d="M1881 3997 c7 -12 32 -57 56 -99 l45 -78 656 0 657 0 130 -226 c72
-125 142 -247 157 -273 15 -25 33 -57 40 -71 14 -25 165 -287 271 -470 l55
-95 116 -2 116 -2 -16 31 c-15 28 -93 165 -113 198 -9 13 -34 57 -160 274 -13
23 -54 93 -91 156 -37 63 -81 138 -96 166 -16 28 -90 155 -164 282 l-134 231
-768 0 -768 1 11 -23z"/>
<path d="M1575 3698 c-60 -105 -121 -210 -135 -234 -29 -49 -26 -44 -307 -531
l-215 -373 59 -102 c255 -442 467 -808 492 -849 11 -19 24 -41 28 -49 8 -17
118 -207 133 -230 5 -8 19 -32 31 -54 14 -25 24 -35 31 -28 23 23 109 188 105
202 -2 9 -146 264 -319 567 l-316 551 25 44 c14 23 35 61 48 83 12 22 147 257
299 522 l276 482 -57 96 c-32 52 -60 95 -63 95 -3 0 -54 -86 -115 -192z"/>
<path d="M2141 3300 c-5 -4 -177 -301 -218 -378 -7 -13 -56 -99 -109 -192
l-96 -170 208 -357 c115 -197 212 -364 215 -373 6 -13 58 -15 428 -14 231 0
423 3 425 5 27 31 425 736 422 746 -3 8 -38 69 -77 136 -40 67 -83 142 -97
167 -14 25 -70 121 -124 214 -54 93 -98 172 -98 175 0 3 -7 15 -16 26 -14 19
-27 20 -435 20 -231 0 -424 -2 -428 -5z"/>
<path d="M3754 2161 c-98 -167 -186 -315 -194 -330 -8 -14 -37 -64 -65 -111
-68 -116 -65 -110 -110 -187 -22 -37 -42 -72 -44 -78 -2 -5 -7 -12 -10 -15 -3
-3 -16 -23 -28 -45 l-22 -40 -657 -5 -656 -5 -58 -102 -59 -103 772 0 772 0
120 206 c66 114 132 228 146 253 15 25 125 217 246 426 121 209 227 394 236
412 l17 32 -113 -2 -114 -2 -179 -304z"/>
</g>
</svg>
